<?xml version="1.0" encoding="UTF-8"?>
<svg id="Layer_1" xmlns="http://www.w3.org/2000/svg" version="1.1" xmlns:xlink="http://www.w3.org/1999/xlink" viewBox="0 0 561 99.5">
  <!-- Generator: Adobe Illustrator 29.3.1, SVG Export Plug-In . SVG Version: 2.1.0 Build 151)  -->
  <defs>
    <style>
      .st0 {
        fill: url(#_무제_그라디언트);
      }

      .st1 {
        fill: #678d2a;
      }

      .st2 {
        fill: #030303;
        fill-rule: evenodd;
      }

      .st3 {
        fill: url(#_무제_그라디언트_2);
      }

      .st4 {
        fill: #3576ae;
      }

      .st5 {
        fill: #e2af00;
      }

      .st6 {
        fill: #0095e0;
      }

      .st7 {
        fill: url(#_무제_그라디언트_4);
      }

      .st8 {
        fill: #a60c1c;
      }

      .st9 {
        fill: url(#_무제_그라디언트_3);
      }
    </style>
    <linearGradient id="_무제_그라디언트" data-name="무제 그라디언트" x1="22.2" y1="-48.5" x2="41.2" y2="1.2" gradientTransform="translate(0 51)" gradientUnits="userSpaceOnUse">
      <stop offset="0" stop-color="#8bc126"/>
      <stop offset="1" stop-color="#8cc125"/>
    </linearGradient>
    <linearGradient id="_무제_그라디언트_2" data-name="무제 그라디언트 2" x1="7.5" y1="-12.7" x2="41.7" y2=".9" gradientTransform="translate(0 51)" gradientUnits="userSpaceOnUse">
      <stop offset="0" stop-color="#569dd2"/>
      <stop offset="1" stop-color="#5fa8e0"/>
    </linearGradient>
    <linearGradient id="_무제_그라디언트_3" data-name="무제 그라디언트 3" x1="60.9" y1="-13.7" x2="66.4" y2="14.9" gradientTransform="translate(0 51)" gradientUnits="userSpaceOnUse">
      <stop offset="0" stop-color="#fadda2"/>
      <stop offset="0" stop-color="#f9d793"/>
      <stop offset=".4" stop-color="#f5c35b"/>
      <stop offset=".7" stop-color="#f2b42e"/>
      <stop offset=".9" stop-color="#f0ac0c"/>
      <stop offset="1" stop-color="#f0a900"/>
    </linearGradient>
    <linearGradient id="_무제_그라디언트_4" data-name="무제 그라디언트 4" x1="40.7" y1="17.2" x2="36.3" y2="44" gradientTransform="translate(0 51)" gradientUnits="userSpaceOnUse">
      <stop offset="0" stop-color="#d76049"/>
      <stop offset=".3" stop-color="#d34635"/>
      <stop offset=".8" stop-color="#ce2223"/>
      <stop offset="1" stop-color="#cc0b1e"/>
    </linearGradient>
  </defs>
  <g>
    <path d="M193.9,26.9h-10l-7.7,46.2h40l1.4-8h-30l6.3-38.2h0Z"/>
    <path d="M263,28c-1.1-.9-2.6-1.3-4-1.1-1.7,0-3.5.6-4.9,1.5-1.1.8-2.1,1.8-2.9,3l-30.6,41.7h12.2l24.7-31.8,3.5,10.8h-10.3l-5.9,8h19.5l5.1,12.9h12.2c0,0-16.2-41.6-16.2-41.6-.5-1.4-1.3-2.5-2.4-3.4h0Z"/>
    <path d="M301.6,39.2c3-2.7,6.9-4.2,11-4.2h24.6l1.4-8.1h-27.1c-6.2,0-12.2,2.1-16.8,6.2-4.8,4.2-7.7,9.6-8.9,16.4s0,12.5,3.4,16.9,8.3,6.7,14.7,6.7h27.1l1.4-8h-24.6c-4.2,0-7.4-1.4-9.6-4.2-2.3-2.7-3-6.3-2.3-10.7.5-4.3,2.6-8.2,5.8-11h0Z"/>
    <path d="M376.9,26.9l-23.1,19.7c-.5.4-1,.8-1.4,1.3l3.5-21h-9.9l-7.7,46.2h10l3.4-20.5c.3.5.6.9,1,1.4l16.7,19.1h14.2l-21-22.7,28.7-23.6h-14.2Z"/>
    <path class="st6" d="M411.9,68.8l-17.1-41.9h10.8c.1.5,12.4,32.2,12.4,32.2,0,.2.1.2.3.2h0c.1,0,.2,0,.3-.2,0,0,23.9-32,24.1-32.3h10.5l-31.5,41.8c-2.3,2.9-4.6,4.4-5.8,4.4s-2.9-1.4-4.1-4.3h0Z"/>
    <path d="M175.5,40.6c.4-2.1.1-4.3-.7-6.3-2.2-4.9-7-7.3-14.4-7.4h-32.1l-7.7,46.2h32.1c7.8,0,13.6-2.6,17.3-7.8,1.2-1.7,2-3.5,2.3-5.6.7-3.5-.4-7-3-9.4,3.5-2.6,5.5-5.8,6.2-9.7h0ZM165.7,40.5c-.4,2-1.6,3.5-4,4.5-1.9.8-3.9,1.2-5.9,1.2h-18.3l-1.4,8h18.4c1.9,0,3.7.4,5.4,1.1,2,1,2.9,2.4,2.6,4.3-.3,1.9-1.6,3.2-4,4.2-1.8.7-3.8,1.1-5.7,1.1h-20.8l5-30.1h20.8c1.9,0,3.8.4,5.5,1.1,1.8,1.1,2.6,2.5,2.3,4.5h0Z"/>
    <path class="st6" d="M473.5,73.1c-7.2,0-12.3-1.5-15.6-4.4-1.4-1.3-2.4-2.9-3-4.6-.7-2-1-4.2-1-6.3,0-1.7.1-3.5.5-5.3,0,0,4.1-24.9,4.3-25.5h9.9c-.1.9-4.2,25.3-4.2,25.3-.2,1.1-.3,2.3-.3,3.5,0,3.8,1.4,6.7,4.1,8.1,2.2,1.2,4.4,1.8,10.5,1.8s6.8-.8,9.6-2.5c1.7-1.1,3.2-2.6,4.1-4.3,1.1-2,1.9-4.2,2.2-6.5,0,0,4.1-24.9,4.3-25.5h9.6c-.1.9-4.2,25.3-4.2,25.3-.5,3.4-1.6,6.6-3.2,9.7-1.4,2.6-3.5,4.9-5.9,6.6-4.2,2.9-9.9,4.4-17.1,4.4l-4.7.2h0Z"/>
    <path class="st6" d="M508.9,73.1c.1-.9,7.6-45.6,7.7-46.2h43.1c-.2.8-1.1,6.9-1.2,7.4h-32.8c-.2,0-.4.2-.4.3l-5.1,30.6h0c0,.2,0,.2,0,.3,0,0,.2.2.3.2h32.7c-.2.8-1.1,6.8-1.3,7.4h-43.1c0,0,0,0,0,0Z"/>
    <path class="st6" d="M525.1,53.7c.2-.8,1.1-6.9,1.2-7.4h28.3c-.2.8-1.1,6.9-1.3,7.4h-28.2,0Z"/>
  </g>
  <g>
    <path class="st2" d="M50,1.3C23.1,1.3,1.3,23.2,1.3,50.2s21.8,48.8,48.7,48.9c26.9,0,48.7-21.9,48.7-48.9S76.9,1.3,50,1.3ZM50,92.8c-23.5,0-42.5-19.1-42.5-42.6S26.5,7.5,50,7.5s42.5,19,42.5,42.6-19.1,42.6-42.5,42.6Z"/>
    <path class="st2" d="M50,16c-18.8,0-34,15.3-34,34.1s15.2,34.2,34,34.2,34-15.3,34-34.2c0-18.8-15.3-34.1-34-34.1Z"/>
    <path class="st1" d="M44.9,52.7C44.3,18.4,31.1,8,16.1,1c0,0-2.1,30.4,28.8,51.7Z"/>
    <path class="st0" d="M44.3,51.3c-.5-30.9-13.8-42.8-27.6-49.2,0,0-.6,29.4,27.6,49.2Z"/>
    <path class="st4" d="M43.8,54.8c-15.4-19.8-27.7-20.3-39.4-17.8,0,0,11.8,18.7,39.4,17.8Z"/>
    <path class="st3" d="M42.1,54c-14.2-18.2-26.7-18.7-36.8-16.6,0,0,12.8,17.3,36.8,16.6Z"/>
    <path class="st5" d="M53.4,70.7l-15.3,1.1s3.3-14.7,9.2-18.5v-.2c-.2-6.6-.7-12.3-1.9-17.1l9.7,13.4s9.4-6.8,20.1,0c0,0,9.9.2,22.1,3.2,0,0-14.4-.8-23,3.2,0,0-2.2,12.3-20.8,14.9Z"/>
    <path class="st9" d="M53.2,70l-14.2,1s3.2-14.5,9-17.5l-.2-.3c0-5.7-.4-10-1.4-14.8l8.2,11.7s10.4-6.9,20-.2c0,0,7.2-.4,17.5,2.1,0,0-9.2-1-18.4,3.1,0,0-1.9,12.5-20.4,14.9h0Z"/>
    <path class="st8" d="M35.2,66.2s5.6,19,10.7,20.9c-3.7,1.3-10.2,4.4-14.6,9.1-.2.4-2.2-18.6,3.9-30h0Z"/>
    <path class="st7" d="M35,67.4s5.3,17.9,9.7,19.5c-3.1,1.1-9.3,4-13,8.1-.2.4-1.5-16.3,3.4-27.6Z"/>
  </g>
</svg>